<svg width="77" height="72" viewBox="0 0 77 72" fill="none" xmlns="http://www.w3.org/2000/svg">
<path d="M38.25 33.75V2.33438C38.25 1.06875 39.2344 0 40.5 0C57.8953 0 72 14.1047 72 31.5C72 32.7656 70.9313 33.75 69.6656 33.75H38.25ZM0 38.25C0 21.1922 12.6703 7.07344 29.1094 4.82344C30.4031 4.64062 31.5 5.68125 31.5 6.98906V40.5L53.5078 62.5078C54.45 63.45 54.3797 64.9969 53.2969 65.7562C47.7844 69.6937 41.0344 72 33.75 72C15.1172 72 0 56.8969 0 38.25ZM74.025 40.5C75.3328 40.5 76.3594 41.5969 76.1906 42.8906C75.1078 50.7516 71.325 57.7406 65.7984 62.9016C64.9547 63.6891 63.6328 63.6328 62.8172 62.8031L40.5 40.5H74.025Z" fill="#6FCB9F"/>
</svg>
