<svg width="91" height="72" viewBox="0 0 91 72" fill="none" xmlns="http://www.w3.org/2000/svg">
<g clip-path="url(#clip0_1442_510)">
<path d="M88.0109 38.1234L71.8109 31.7953C71.2344 31.5703 70.0391 31.275 68.6891 31.7953L52.4891 38.1234C50.9844 38.7141 50 40.0922 50 41.625C50 57.3187 59.6609 68.175 68.6891 71.7047C70.0391 72.225 71.2203 71.9297 71.8109 71.7047C79.025 68.8922 90.5 59.1328 90.5 41.625C90.5 40.0922 89.5156 38.7141 88.0109 38.1234ZM70.25 65.025V38.4328L83.6797 43.6781C82.8922 55.9266 75.1156 62.7188 70.25 65.025ZM32 36C41.9422 36 50 27.9422 50 18C50 8.05781 41.9422 0 32 0C22.0578 0 14 8.05781 14 18C14 27.9422 22.0578 36 32 36ZM45.5 41.625C45.5 41.2734 45.6125 40.95 45.6547 40.6125C45.3031 40.5984 44.9656 40.5 44.6 40.5H42.2516C39.1297 41.9344 35.6562 42.75 32 42.75C28.3438 42.75 24.8844 41.9344 21.7484 40.5H19.4C8.96562 40.5 0.5 48.9656 0.5 59.4V65.25C0.5 68.9766 3.52344 72 7.25 72H56.75C57.7062 72 58.6203 71.7891 59.45 71.4375C51.8563 65.4047 45.5 55.0266 45.5 41.625Z" fill="#6FA4CB"/>
</g>
<defs>
<clipPath id="clip0_1442_510">
<rect width="90" height="72" fill="white" transform="translate(0.5)"/>
</clipPath>
</defs>
</svg>
