<svg width="73" height="72" viewBox="0 0 73 72" fill="none" xmlns="http://www.w3.org/2000/svg">
<g clip-path="url(#clip0_1442_506)">
<path d="M65.75 18H11.21C10.5586 18.1261 9.88735 18.1065 9.24438 17.9428C8.6014 17.779 8.0026 17.4751 7.49084 17.0528C6.97909 16.6305 6.56705 16.1002 6.28425 15.5C6.00144 14.8998 5.85486 14.2445 5.855 13.581V13.4955L63.5 11.25V5.895C63.594 5.09602 63.5052 4.28614 63.2403 3.52651C62.9754 2.76688 62.5414 2.07737 61.9711 1.51003C61.4007 0.942697 60.7089 0.512375 59.9478 0.251565C59.1868 -0.00924633 58.3765 -0.0937284 57.578 0.00449818L6.395 8.325C4.66759 8.96267 3.17678 10.1138 2.12295 11.6238C1.06911 13.1338 0.502752 14.9302 0.5 16.7715L0.5 65.2455C0.5 67.0357 1.21116 68.7526 2.47703 70.0185C3.7429 71.2843 5.45979 71.9955 7.25 71.9955H65.75C67.5402 71.9955 69.2571 71.2843 70.523 70.0185C71.7888 68.7526 72.5 67.0357 72.5 65.2455V24.7005L72.5045 24.516C72.5045 22.7855 71.817 21.1258 70.5934 19.9021C69.3697 18.6785 67.71 17.991 65.9795 17.991L65.741 17.9955L65.75 18ZM59 49.5C57.2092 49.4994 55.492 48.7874 54.2261 47.5207C52.9602 46.254 52.2494 44.5363 52.25 42.7455C52.2506 40.9547 52.9626 39.2375 54.2293 37.9716C55.496 36.7057 57.2137 35.9949 59.0045 35.9955C59.8912 35.9958 60.7692 36.1707 61.5883 36.5103C62.4074 36.8499 63.1516 37.3476 63.7784 37.9748C64.4052 38.602 64.9023 39.3465 65.2414 40.1658C65.5804 40.9852 65.7548 41.8633 65.7545 42.75C65.7542 43.6367 65.5793 44.5147 65.2397 45.3338C64.9 46.1529 64.4024 46.8971 63.7752 47.5239C63.148 48.1507 62.4035 48.6478 61.5841 48.9869C60.7648 49.3259 59.8867 49.5003 59 49.5Z" fill="#CBC26F"/>
</g>
<defs>
<clipPath id="clip0_1442_506">
<rect width="72" height="72" fill="white" transform="translate(0.5)"/>
</clipPath>
</defs>
</svg>
